<?xml version="1.0"?><svg width="640" height="480" xmlns="http://www.w3.org/2000/svg">
 <!-- Created with SVG-edit - http://svg-edit.googlecode.com/ -->
 <g>
  <title>Layer 1</title>
  <g id="svg_2">
   <path id="svg_2" d="m479.615326,408.980042c-5.915222,-6.174225 -6.064636,-13.072357 -0.405518,-18.731415c6.734039,-6.734131 15.061066,-5.102905 19.849945,3.888519c2.959106,5.556091 2.499329,9.945801 -1.585754,15.13913c-4.856384,6.173889 -11.769775,6.059265 -17.858673,-0.296234z" fill="#ff0000"/>
   <path id="svg_3" d="m37.195351,343.240967c-1.73209,-2.087036 -1.73209,-3.144867 0,-5.231903c2.84544,-3.428497 6.329288,-3.328369 7.691349,0.221069c1.067139,2.780945 -1.603569,7.62674 -4.20343,7.62674c-0.724289,0 -2.293839,-1.177124 -3.487919,-2.615906z" fill="#ff0000"/>
   <path id="svg_4" d="m231.64682,380.736084c0.592819,-0.959167 1.816299,-1.743958 2.718857,-1.743958c0.902573,0 1.641022,0.78479 1.641022,1.743958c0,0.959229 -1.223434,1.743958 -2.718872,1.743958c-1.495361,0 -2.233795,-0.784729 -1.641006,-1.743958z" fill="#ff0000"/>
   <path id="svg_5" d="m207.231384,354.576691c-0.592789,-0.959137 -0.24675,-1.743958 0.769043,-1.743958c1.015793,0 1.846909,0.784821 1.846909,1.743958c0,0.959198 -0.346054,1.743958 -0.769058,1.743958c-0.422958,0 -1.254074,-0.78476 -1.846893,-1.743958z" fill="#ff0000"/>
   <path id="svg_6" d="m396.450989,426.07901c0,-0.959137 0.78476,-1.743958 1.743958,-1.743958c0.959198,0 1.743927,0.784821 1.743927,1.743958c0,0.959229 -0.784729,1.743958 -1.743927,1.743958c-0.959198,0 -1.743958,-0.784729 -1.743958,-1.743958z" fill="#ff0000"/>
   <path id="svg_7" d="m401.682831,413.871307c0,-0.959167 0.738525,-1.743958 1.641052,-1.743958c0.902588,0 2.126068,0.78479 2.718872,1.743958c0.592804,0.959198 -0.145691,1.743958 -1.641052,1.743958c-1.495361,0 -2.718872,-0.78476 -2.718872,-1.743958z" fill="#ff0000"/>
   <path id="svg_8" d="m418.36261,396.942932c-0.946442,-2.485474 -0.746124,-2.685791 0.976227,-0.976288c1.191895,1.183044 1.727722,2.59021 1.190765,3.127167c-0.536926,0.536957 -1.512115,-0.430969 -2.166992,-2.150879z" fill="#ff0000"/>
   <path id="svg_9" d="m445.662292,394.418365c0.906036,-2.718201 4.644958,-3.161163 5.287384,-0.626465c0.239838,0.946045 -1.02774,2.001953 -2.816772,2.346497c-2.118225,0.407959 -2.979919,-0.192017 -2.470612,-1.720032z" fill="#ff0000"/>
   <path id="svg_10" d="m374.796112,389.689941c-0.75119,-1.215515 -0.894928,-2.681 -0.319275,-3.256653c1.560791,-1.560791 3.262512,0.73468 2.419556,3.263733c-0.590698,1.772095 -1.001495,1.770721 -2.100281,-0.00708z" fill="#ff0000"/>
   <path id="svg_11" d="m435.297394,29.26313c-0.500549,1.50429 -1.56134,2.798981 -2.35733,2.877018c-0.79599,0.078114 -0.917938,2.546722 -0.270996,5.48587c1.226318,5.571503 -1.358093,10.595921 -5.184753,10.079811c-1.261932,-0.170151 -0.778839,2.60228 1.116394,6.406219c3.112579,6.24736 2.699829,12.310673 -1.310608,19.255093c-2.113678,3.660065 -11.952972,6.985802 -17.440277,5.89505c-3.695679,-0.734634 -6.067963,-2.404358 -8.923004,-6.280319c-8.096313,-10.991482 -1.463715,-26.862984 11.347656,-27.154324c5.870422,-0.133549 6.487701,-0.5084 5.402863,-3.280869c-1.475616,-3.771229 2.851135,-9.547642 7.367432,-9.83593c2.745514,-0.175209 3.126099,-0.708469 2.431854,-3.407211c-0.988861,-3.843739 3.616791,-6.97588 6.624786,-4.505259c1.158295,0.95138 1.696533,2.960569 1.195984,4.464849z" fill="#ff0000"/>
   <path id="svg_12" d="m525.939941,208.575439c-3.675354,-1.31839 -2.598267,-7.467163 1.307983,-7.467163c2.289917,0 3.487915,1.162674 3.487915,3.384979c0,3.844879 -1.618042,5.222137 -4.795898,4.082184z" fill="#ff0000"/>
   <path id="svg_13" d="m368.918182,253.100067c-3.271942,-3.271942 -2.510437,-5.203674 1.809387,-4.590179c2.158173,0.306488 3.92392,1.669067 3.92392,3.027893c0,3.320282 -3.124023,4.17157 -5.733307,1.562286z" fill="#ff0000"/>
   <path id="svg_14" d="m507.147949,167.081635c1.235352,-3.542191 -1.839722,-3.243851 -7.090271,0.687866c-13.55542,10.150452 -21.745728,19.807968 -19.117737,22.542389c2.949585,3.068985 23.338928,-15.003784 26.208008,-23.230255z" fill="#ff0000"/>
   <path id="svg_15" d="m307.509033,249.939148c0,-0.959198 1.177216,-1.743958 2.615936,-1.743958c1.438782,0 2.615967,0.78476 2.615967,1.743958c0,0.959198 -1.177185,1.743958 -2.615967,1.743958c-1.438721,0 -2.615936,-0.78476 -2.615936,-1.743958z" fill="#ff0000"/>
   <path id="svg_16" d="m534.937439,224.868179c-1.457092,-3.797363 -0.437317,-4.81723 2.810181,-2.810196c1.994385,1.23259 2.090881,2.036469 0.442627,3.684708c-1.648254,1.648361 -2.35791,1.457535 -3.252808,-0.874512z" fill="#ff0000"/>
   <path id="svg_17" d="m511.552307,205.322891c0,-3.079727 3.754333,-2.543411 4.832214,0.690277c0.379639,1.139038 -0.552185,2.070953 -2.070984,2.070953c-1.518677,0 -2.76123,-1.242569 -2.76123,-2.76123z" fill="#ff0000"/>
   <path id="svg_18" d="m497.600586,208.084122c0,-0.959152 0.34613,-1.743958 0.769104,-1.743958c0.422913,0 1.254028,0.784805 1.846863,1.743958c0.592834,0.959213 0.246704,1.743942 -0.769043,1.743942c-1.015808,0 -1.846924,-0.784729 -1.846924,-1.743942z" fill="#ff0000"/>
   <path id="svg_19" d="m573.013611,149.249847c-1.321777,4.13385 -4.320557,8.010559 -10.158447,13.132675c-4.904419,4.303009 -7.852295,7.833237 -7.226807,8.654419c0.581055,0.762756 0.007507,2.185852 -1.274658,3.162491c-2.158508,1.644196 -4.534302,0.728943 -6.614197,-2.548386c-1.015015,-1.599197 -9.092773,4.232971 -10.056152,7.260651c-0.368958,1.159454 -1.719788,2.907166 -3.001831,3.883698c-1.282166,0.976654 -1.964905,0.624664 -1.517273,-0.782059c0.447632,-1.406845 -0.071777,-4.425095 -1.154297,-6.707275c-2.640076,-5.565994 -1.152893,-11.238541 4.670227,-17.813934c8.073547,-9.116623 16.049683,-14.293182 25.685486,-16.669952c10.277039,-2.534973 13.3703,-0.086731 10.647949,8.427673z" fill="#ff0000"/>
   <path id="svg_20" d="m480.16098,210.700027c0,-1.438721 1.177246,-2.615906 2.615967,-2.615906c1.438782,0 2.615906,1.177185 2.615906,2.615906c0,1.438797 -1.177124,2.615952 -2.615906,2.615952c-1.438721,0 -2.615967,-1.177155 -2.615967,-2.615952z" fill="#ff0000"/>
   <path id="svg_21" d="m270.885925,240.347382c0,-1.598633 0.980988,-2.57962 2.179962,-2.179962c2.468842,0.822968 2.197418,3.62738 -0.436005,4.505249c-0.959167,0.319763 -1.743958,-0.726654 -1.743958,-2.325287z" fill="#ff0000"/>
   <path id="svg_22" d="m348.30246,236.814789c-2.702515,-4.124573 -2.687897,-4.623505 0.230072,-7.847839c5.475525,-6.050339 13.039246,-3.328644 13.039246,4.692017c0,3.68277 -4.392853,7.560364 -8.564911,7.560364c-1.000153,0 -3.117126,-1.981995 -4.704407,-4.404541z" fill="#ff0000"/>
   <path id="svg_23" d="m540.175232,75.810493c-4.01178,-4.011772 -2.596252,-8.410202 2.912048,-9.048607c3.235413,-0.374985 5.231812,0.521057 6.518677,2.925591c3.973267,7.424126 -3.365112,12.188675 -9.430725,6.123016z" fill="#ff0000"/>
   <path id="svg_24" d="m603.873962,75.12056c-4.949585,5.203201 -9.954041,15.717964 -8.135803,17.093971c0.670349,0.507271 3.606445,-1.020798 6.524536,-3.395523c4.507935,-3.668571 5.549561,-5.217606 6.927551,-10.301994c2.112427,-7.794266 0.093872,-9.083855 -5.316284,-3.396454z" fill="#ff0000"/>
   <path id="svg_25" d="m284.365234,212.262375c-0.699402,-0.699402 -1.271576,-2.474991 -1.271576,-3.945724c0,-1.962982 0.515869,-2.158142 1.940094,-0.733902c1.067078,1.067123 1.639343,2.842621 1.271667,3.945709c-0.367706,1.103043 -1.240753,1.433319 -1.940186,0.733917z" fill="#ff0000"/>
   <path id="svg_26" d="m470.036255,231.279694c-3.251953,4.181335 -4.003326,6.853149 -3.254059,11.570984c1.245087,7.839539 -1.938629,12.520355 -10.125305,14.88678c-14.049896,4.061157 -21.47403,-5.408417 -13.536377,-17.265991c3.322266,-4.962921 5.179321,-6.035767 11.483124,-6.633972c4.136627,-0.392578 8.735779,-2.185699 10.22229,-3.985443c1.486328,-1.799561 3.33136,-4.031296 4.100037,-4.959564c0.768677,-0.928238 2.284302,-1.094116 3.368073,-0.368652c1.396576,0.934906 0.738861,2.90274 -2.257782,6.755859z" fill="#ff0000"/>
   <path id="svg_27" d="m251.702362,225.523697c-4.344482,-4.344437 -4.454163,-9.048721 -0.298706,-12.809357c7.880341,-7.131577 20.614777,0.610504 15.857239,9.640488c-3.997864,7.587952 -9.93103,8.796387 -15.558533,3.168869z" fill="#ff0000"/>
   <path id="svg_28" d="m268.287567,173.233398c-0.602509,-0.974854 0.128052,-1.772446 1.623444,-1.772446c3.063324,0 3.514374,1.046509 1.095398,2.541489c-0.892883,0.551865 -2.116394,0.205765 -2.718842,-0.769043z" fill="#ff0000"/>
   <path id="svg_29" d="m318.115936,119.445511c21.500854,-24.337982 47.334198,-51.987244 57.40744,-61.442722c10.073242,-9.45554 -3.866577,8.005741 -30.97757,38.803051c-27.110565,30.796867 -52.943909,58.446068 -57.407501,61.44268c-4.463135,2.996277 9.476685,-14.464996 30.977631,-38.803009z" fill="#ff0000"/>
   <path id="svg_30" d="m431.081299,135.10881c0.446075,-2.856308 1.307251,-5.295319 1.913666,-5.420105c1.640045,-0.337479 0.5784,8.014633 -1.196198,9.410767c-0.840698,0.661362 -1.163574,-1.134415 -0.717468,-3.990662z" fill="#ff0000"/>
   <path id="svg_31" d="m401.682831,98.317596c0,-1.01577 0.784821,-1.846886 1.743958,-1.846886c0.959229,0 1.743958,0.3461 1.743958,0.769051c0,0.422997 -0.784729,1.254112 -1.743958,1.846878c-0.959137,0.59285 -1.743958,0.24675 -1.743958,-0.769043z" fill="#ff0000"/>
   <path id="svg_32" d="m376.578064,68.143509c2.453766,-6.468628 2.767212,-11.436569 0.696777,-11.039799c-5.237213,1.003658 -13.102142,20.712467 -8.724762,21.863293c1.961731,0.5158 5.574371,-4.35479 8.027985,-10.823494z" fill="#ff0000"/>
   <path id="svg_33" d="m512.762329,116.28302c-1.393311,-1.39328 0.181702,-4.116669 2.380798,-4.116669c0.902527,0 1.640991,1.1772 1.640991,2.615936c0,2.696899 -2.0578,3.46476 -4.02179,1.500732z" fill="#ff0000"/>
   <path id="svg_34" d="m477.883148,123.258873c-1.627533,-1.627586 0.339203,-4.116692 3.252777,-4.116692c1.382141,0 2.513,1.177216 2.513,2.615952c0,2.626785 -3.681488,3.58506 -5.765778,1.50074z" fill="#ff0000"/>
   <path id="svg_35" d="m482.340942,323.774414c-2.991302,-1.207062 -2.735931,-4.932281 0.52356,-7.637421c2.228302,-1.849396 3.189758,-1.757416 5.470398,0.523163c4.861847,4.861938 0.691406,9.811829 -5.993958,7.114258z" fill="#ff0000"/>
   <path id="svg_36" d="m417.67804,313.189575c-4.414856,-4.956451 -3.819672,-10.004395 1.747589,-14.82193c3.167542,-2.740906 3.954895,-2.776886 8.568268,-0.391174c3.740326,1.934174 5.073212,3.880219 5.053528,7.378204c-0.032928,5.854584 -1.34201,7.763641 -7.0336,10.256866c-3.866455,1.693756 -4.950348,1.378876 -8.335785,-2.421967z" fill="#ff0000"/>
   <path id="svg_37" d="m450.46283,313.532349c-3.028473,-3.649109 -0.502899,-5.599823 2.875702,-2.221161c1.630951,1.63092 2.047455,3.170898 1.028076,3.800873c-0.942535,0.58255 -2.699249,-0.128387 -3.903778,-1.579712z" fill="#ff0000"/>
   <path id="svg_38" d="m388.727722,303.005371c-1.507294,-1.507294 -2.740509,-3.413239 -2.740509,-4.235382c0,-1.591675 4.895782,-6.97583 6.343079,-6.97583c2.627228,0 7.608582,3.954834 7.608582,6.04068c0,2.676666 -4.61557,7.911011 -6.97583,7.911011c-0.822174,0 -2.728027,-1.233215 -4.235321,-2.740479z" fill="#ff0000"/>
   <path id="svg_39" d="m487.328857,292.897552c-1.497192,-1.804077 -1.390717,-2.872803 0.437439,-4.389984c3.248901,-2.696381 8.090363,-0.61795 8.090363,3.473206c0,3.901459 -5.554993,4.498749 -8.527802,0.916779z" fill="#ff0000"/>
   <path id="svg_40" d="m468.096283,274.621735c-2.033051,-3.798737 0.578766,-7.243011 5.492432,-7.243011c4.093658,0 5.851898,4.513153 3.065948,7.870026c-2.923279,3.522369 -6.47702,3.262024 -8.55838,-0.627014z" fill="#ff0000"/>
   <path id="svg_41" d="m405.772614,273.407379c-0.568024,-1.480133 -0.562347,-3.16153 0.012543,-3.73642c1.242065,-1.242126 6.36145,2.698853 6.36145,4.897125c0,2.631805 -5.288239,1.668823 -6.373993,-1.160706z" fill="#ff0000"/>
   <path id="svg_42" d="m488.007294,273.231903c-3.177277,-3.177246 -2.326111,-10.234558 1.734894,-14.385284c2.021088,-2.065765 2.914276,-1.544983 5.982605,3.487946c4.48407,7.355255 4.531738,9.665253 0.24649,11.95871c-4.379639,2.343842 -4.586334,2.316315 -7.963989,-1.061371z" fill="#ff0000"/>
   <path id="svg_43" d="m522.015991,257.042877c0,-2.495789 1.120056,-3.615814 3.615845,-3.615814c4.469116,0 3.962097,5.772217 -0.583862,6.647705c-2.092773,0.402985 -3.031982,-0.536133 -3.031982,-3.031891z" fill="#ff0000"/>
   <g id="svg_44">
    <path id="svg_45" d="m297.665955,293.398285c-1.279358,-0.411194 -1.170135,-1.680298 0.223907,-2.601868c0.953033,-0.630035 1.364227,-0.598724 2.33963,0.178223c2.079376,1.656342 0.295715,3.342651 -2.563538,2.423645z" fill="#ff0000"/>
    <path id="svg_46" d="m270.010315,289.792297c-1.888214,-1.688538 -1.633667,-3.408234 0.747406,-5.049438c1.354706,-0.933777 1.691467,-0.946014 3.664551,-0.13327c1.599701,0.658936 2.169769,1.321899 2.161346,2.51355c-0.014069,1.994537 -0.573975,2.644897 -3.008209,3.494263c-1.653625,0.577026 -2.117188,0.469757 -3.565094,-0.825104z" fill="#ff0000"/>
    <path id="svg_47" d="m284.032013,289.909088c-1.295258,-1.243164 -0.215088,-1.907715 1.229919,-0.756683c0.69751,0.555603 0.875671,1.080231 0.439697,1.29483c-0.403137,0.198486 -1.15448,-0.043732 -1.669617,-0.538147z" fill="#ff0000"/>
    <path id="svg_48" d="m257.62854,286.322815c-0.644653,-0.513519 -1.172089,-1.162811 -1.172089,-1.442902c0,-0.542236 2.093872,-2.376465 2.71286,-2.376465c1.123657,0 3.25412,1.34729 3.25412,2.057892c0,0.911865 -1.97403,2.695068 -2.98349,2.695068c-0.351624,0 -1.166748,-0.420105 -1.811401,-0.933594z" fill="#ff0000"/>
    <path id="svg_49" d="m299.799225,282.879333c-0.64032,-0.614594 -0.594788,-0.978699 0.187103,-1.495544c1.389526,-0.918579 3.460144,-0.210541 3.460144,1.183197c0,1.329163 -2.375793,1.532623 -3.647247,0.312347z" fill="#ff0000"/>
    <path id="svg_50" d="m291.573669,276.653229c-0.869507,-1.294128 0.247528,-2.467499 2.34903,-2.467499c1.750824,0 2.502808,1.537506 1.31131,2.681091c-1.250275,1.200012 -2.770172,1.111298 -3.660339,-0.213593z" fill="#ff0000"/>
    <path id="svg_51" d="m264.918457,276.239532c-0.24292,-0.504242 -0.240509,-1.077057 0.005371,-1.272888c0.531219,-0.423187 2.720734,0.919403 2.720734,1.668304c0,0.896576 -2.261749,0.568512 -2.726105,-0.395416z" fill="#ff0000"/>
    <path id="svg_52" d="m300.089386,276.179749c-1.358887,-1.082397 -0.994843,-3.486664 0.742004,-4.900696c0.86441,-0.703766 1.246429,-0.526337 2.558685,1.188263c1.917816,2.505737 1.938171,3.292694 0.105438,4.074005c-1.873138,0.798492 -1.961517,0.789124 -3.406128,-0.361572z" fill="#ff0000"/>
    <path id="svg_53" d="m314.634583,270.664551c0,-0.85025 0.479034,-1.231812 1.546448,-1.231812c1.911407,0 1.69455,1.966461 -0.249725,2.264709c-0.89505,0.137299 -1.296722,-0.182648 -1.296722,-1.032898z" fill="#ff0000"/>
   </g>
   <g id="svg_54">
    <path id="svg_55" d="m435.183441,380.675964c-2.23114,-0.717072 -2.04068,-2.930328 0.390472,-4.537537c1.662048,-1.098724 2.379181,-1.044128 4.080231,0.310822c3.626343,2.88858 0.515686,5.829437 -4.470703,4.226715z" fill="#ff0000"/>
    <path id="svg_56" d="m386.953125,374.387299c-3.292969,-2.944763 -2.84906,-5.943817 1.303436,-8.806c2.362549,-1.62851 2.94986,-1.649811 6.390808,-0.232452c2.789825,1.1492 3.784027,2.305359 3.769318,4.383545c-0.024506,3.478394 -1.000977,4.612579 -5.246185,6.093872c-2.883881,1.006287 -3.692291,0.819214 -6.217377,-1.438965z" fill="#ff0000"/>
    <path id="svg_57" d="m411.406372,374.590973c-2.25885,-2.16803 -0.375092,-3.326965 2.144928,-1.319611c1.216431,0.968933 1.527161,1.883881 0.766846,2.258118c-0.703064,0.346161 -2.013367,-0.076294 -2.911774,-0.938507z" fill="#ff0000"/>
    <path id="svg_58" d="m376.225311,373.724884c-1.124237,-0.895508 -2.044067,-2.027863 -2.044067,-2.516327c0,-0.945648 3.651642,-4.14447 4.73114,-4.14447c1.959595,0 5.675018,2.34964 5.675018,3.588898c0,1.59021 -3.442596,4.700043 -5.203064,4.700043c-0.61322,0 -2.03476,-0.732635 -3.159027,-1.628143z" fill="#ff0000"/>
    <path id="svg_59" d="m438.903778,362.33136c-1.11673,-1.071838 -1.037323,-1.706818 0.326294,-2.608185c2.423279,-1.601929 6.034332,-0.367157 6.034332,2.063477c0,2.317993 -4.14325,2.672821 -6.360626,0.544708z" fill="#ff0000"/>
    <path id="svg_60" d="m424.558746,351.473297c-1.516388,-2.256897 0.431671,-4.303192 4.096588,-4.303192c3.053406,0 4.364807,2.681335 2.286865,4.67569c-2.18042,2.092773 -4.831055,1.938049 -6.383453,-0.372498z" fill="#ff0000"/>
    <path id="svg_61" d="m378.07312,350.751831c-0.423645,-0.879364 -0.419434,-1.878357 0.009369,-2.219879c0.926453,-0.738007 4.744843,1.603394 4.744843,2.909485c0,1.563568 -3.944366,0.991425 -4.754211,-0.689606z" fill="#ff0000"/>
    <path id="svg_62" d="m439.40979,350.647552c-2.369812,-1.887634 -1.734955,-6.080566 1.294037,-8.5466c1.507507,-1.227356 2.173737,-0.917908 4.46225,2.072296c3.344604,4.369904 3.380096,5.74231 0.183868,7.104889c-3.266663,1.392517 -3.420807,1.37619 -5.940155,-0.630585z" fill="#ff0000"/>
    <path id="svg_63" d="m464.776031,341.029297c0,-1.482819 0.835419,-2.148224 2.69693,-2.148224c3.333435,0 2.955231,3.429413 -0.435486,3.949554c-1.560944,0.239441 -2.261444,-0.318542 -2.261444,-1.801331z" fill="#ff0000"/>
   </g>
   <path id="svg_64" d="m431.41864,171.700134c21.608215,-24.242737 47.563507,-51.777542 57.678467,-61.188431c10.114868,-9.410934 -3.901978,7.988564 -31.148773,38.665771c-27.246429,30.676773 -53.20166,58.211517 -57.678436,61.1884c-4.476379,2.976501 9.540466,-14.423004 31.148743,-38.665741z" fill="#ff0000"/>
   <g id="svg_65">
    <path id="svg_66" d="m265.840515,231.61377c-2.408875,-0.365356 -2.203247,-1.492981 0.421631,-2.311829c1.794434,-0.559814 2.568665,-0.531982 4.405273,0.158325c3.915222,1.471741 0.556763,2.970062 -4.826904,2.153503z" fill="#ff0000"/>
    <path id="svg_67" d="m213.76796,228.409729c-3.555298,-1.500305 -3.076019,-3.028305 1.407288,-4.486557c2.550766,-0.829681 3.184845,-0.840561 6.899963,-0.118408c3.012054,0.58548 4.085419,1.174545 4.06958,2.233353c-0.026489,1.772186 -1.08075,2.350067 -5.664154,3.104767c-3.113586,0.512695 -3.98642,0.417358 -6.712677,-0.733154z" fill="#ff0000"/>
    <path id="svg_68" d="m240.169312,228.513519c-2.438843,-1.104584 -0.405029,-1.695068 2.315796,-0.672333c1.313354,0.493652 1.648804,0.959808 0.827881,1.150482c-0.759033,0.176361 -2.173767,-0.038849 -3.143677,-0.478149z" fill="#ff0000"/>
    <path id="svg_69" d="m190.454422,225.327011c-1.213806,-0.456284 -2.206909,-1.033188 -2.206909,-1.282059c0,-0.481796 3.942535,-2.111557 5.108017,-2.111557c2.115723,0 6.127151,1.197098 6.127151,1.828491c0,0.810226 -3.716873,2.394669 -5.617584,2.394669c-0.662064,0 -2.196854,-0.373291 -3.410675,-0.829544z" fill="#ff0000"/>
    <path id="svg_70" d="m269.857239,222.26738c-1.205627,-0.546082 -1.119934,-0.869598 0.352295,-1.328827c2.616333,-0.816193 6.515076,-0.187073 6.515076,1.0513c0,1.181 -4.473328,1.361771 -6.867371,0.277527z" fill="#ff0000"/>
    <path id="svg_71" d="m254.369446,216.735306c-1.637207,-1.149872 0.466064,-2.192444 4.422913,-2.192444c3.296631,0 4.712524,1.366119 2.469055,2.382233c-2.354126,1.066238 -5.215881,0.987411 -6.891968,-0.189789z" fill="#ff0000"/>
    <path id="svg_72" d="m204.180542,216.367737c-0.457382,-0.448044 -0.45285,-0.957001 0.010117,-1.131012c1.000229,-0.376007 5.122849,0.816925 5.122849,1.482346c0,0.796631 -4.258621,0.505142 -5.132965,-0.351334z" fill="#ff0000"/>
    <path id="svg_73" d="m270.403564,216.314606c-2.558594,-0.961731 -1.873169,-3.097992 1.397156,-4.354401c1.627563,-0.62532 2.346863,-0.467667 4.817688,1.055801c3.611084,2.226425 3.649353,2.925659 0.198547,3.619873c-3.526917,0.709473 -3.693298,0.701157 -6.413391,-0.321274z" fill="#ff0000"/>
    <path id="svg_74" d="m297.790588,211.4142c0,-0.755463 0.901978,-1.094498 2.911804,-1.094498c3.598999,0 3.190674,1.747253 -0.470215,2.012253c-1.685242,0.121994 -2.441589,-0.162277 -2.441589,-0.917755z" fill="#ff0000"/>
   </g>
   <path id="svg_75" d="m310.602509,139.545364c1.962097,-2.123154 4.036255,-3.668503 4.609344,-3.434189c1.549866,0.633667 -3.985809,6.977234 -6.237366,7.147629c-1.06662,0.080688 -0.334045,-1.590363 1.628021,-3.71344z" fill="#ff0000"/>
   <path id="svg_76" d="m338.504272,151.767532c1.939697,-2.1436 3.997589,-3.710602 4.57309,-3.482315c1.556427,0.617386 -3.912445,7.018631 -6.162109,7.212616c-1.065704,0.091873 -0.350677,-1.586761 1.58902,-3.730301z" fill="#ff0000"/>
   <path id="svg_77" d="m382.17038,216.887131c0.860199,-2.76001 2.069733,-5.046341 2.687927,-5.080856c1.671783,-0.093277 -0.603302,8.012787 -2.563477,9.133575c-0.928619,0.53093 -0.98465,-1.292801 -0.124451,-4.052719z" fill="#ff0000"/>
   <path id="svg_78" d="m415.235565,244.228638c1.890717,-2.18692 3.912628,-3.80011 4.493164,-3.5849c1.569946,0.582031 -3.752686,7.105377 -5.997345,7.350189c-1.063385,0.115997 -0.386505,-1.5784 1.504181,-3.765289z" fill="#ff0000"/>
   <path id="svg_79" d="m245.293823,271.371277c-5.508362,7.907318 -7.844467,12.132904 -10.117096,18.300201c-3.776413,10.248016 -9.535294,18.815247 -18.315384,27.246796c-15.068176,14.469971 -15.788971,5.78186 -1.314087,-15.841278c6.058365,-9.050232 8.384155,-11.716583 14.381882,-16.487762c3.935684,-3.13089 9.157288,-8.519684 11.605713,-11.977356c2.448059,-3.457184 5.485626,-7.745789 6.750214,-9.530365c1.264587,-1.784515 2.720337,-2.962708 3.235107,-2.618134c0.663269,0.444031 -1.15036,3.621307 -6.226349,10.907898z" fill="#ff0000"/>
   <g id="svg_80">
    <path id="svg_81" d="m367.169006,406.835358c-2.23114,-0.717072 -2.040649,-2.930328 0.390503,-4.537537c1.662079,-1.098755 2.37915,-1.044128 4.0802,0.310822c3.626343,2.88858 0.515747,5.829437 -4.470703,4.226715z" fill="#ff0000"/>
    <path id="svg_82" d="m318.93869,400.546692c-3.292938,-2.944763 -2.84903,-5.943817 1.303467,-8.806c2.362579,-1.62851 2.949829,-1.649841 6.390839,-0.232452c2.789825,1.14917 3.783997,2.305328 3.769287,4.383545c-0.024536,3.478394 -1.000977,4.612579 -5.246185,6.093842c-2.88385,1.006317 -3.692291,0.819244 -6.217407,-1.438934z" fill="#ff0000"/>
    <path id="svg_83" d="m343.391998,400.750366c-2.258881,-2.16803 -0.375122,-3.326965 2.144928,-1.319641c1.216431,0.968933 1.52713,1.883881 0.766785,2.258148c-0.703033,0.346161 -2.013367,-0.076263 -2.911713,-0.938507z" fill="#ff0000"/>
    <path id="svg_84" d="m297.345398,394.496033c-1.124237,-0.895569 -2.044067,-2.027893 -2.044067,-2.516357c0,-0.945618 3.651611,-4.14444 4.73111,-4.14444c1.959625,0 5.675049,2.349609 5.675049,3.588867c0,1.59024 -3.442627,4.700073 -5.203064,4.700073c-0.613251,0 -2.03479,-0.732635 -3.159027,-1.628143z" fill="#ff0000"/>
    <path id="svg_85" d="m370.889343,388.490753c-1.116669,-1.071838 -1.037262,-1.706818 0.326324,-2.608185c2.423248,-1.601929 6.034363,-0.367157 6.034363,2.063477c0,2.317993 -4.143311,2.672821 -6.360687,0.544708z" fill="#ff0000"/>
    <path id="svg_86" d="m356.544312,377.63269c-1.516357,-2.256897 0.431702,-4.303223 4.096619,-4.303223c3.053375,0 4.364807,2.681335 2.286896,4.67569c-2.18042,2.092804 -4.831116,1.93808 -6.383514,-0.372467z" fill="#ff0000"/>
    <path id="svg_87" d="m310.058746,376.911224c-0.423676,-0.879364 -0.419464,-1.878357 0.009338,-2.219879c0.926422,-0.738007 4.744873,1.603394 4.744873,2.909454c0,1.563568 -3.944427,0.991455 -4.754211,-0.689575z" fill="#ff0000"/>
    <path id="svg_88" d="m383.318481,381.572784c-2.369843,-1.887634 -1.734955,-6.080566 1.294037,-8.5466c1.507477,-1.227356 2.173706,-0.917938 4.46225,2.072296c3.344574,4.369904 3.380066,5.74231 0.183868,7.104889c-3.266663,1.392517 -3.420807,1.37619 -5.940155,-0.630585z" fill="#ff0000"/>
    <path id="svg_89" d="m396.761627,367.18869c0,-1.482819 0.835388,-2.148224 2.69693,-2.148224c3.333435,0 2.9552,3.429413 -0.435516,3.949524c-1.560913,0.239471 -2.261414,-0.318512 -2.261414,-1.8013z" fill="#ff0000"/>
   </g>
   <g id="svg_90">
    <path id="svg_91" d="m402.048218,441.714569c-2.231171,-0.717102 -2.04068,-2.930359 0.390472,-4.537567c1.662048,-1.098724 2.37915,-1.044159 4.080231,0.310822c3.626343,2.88858 0.515717,5.829437 -4.470703,4.226746z" fill="#ff0000"/>
    <path id="svg_92" d="m353.817902,435.425873c-3.292999,-2.944733 -2.84903,-5.943848 1.303467,-8.80603c2.362518,-1.628448 2.949829,-1.64978 6.390808,-0.232422c2.789795,1.14917 3.783966,2.305359 3.769287,4.383545c-0.024536,3.478394 -1.000977,4.61261 -5.246185,6.093872c-2.88385,1.006287 -3.692261,0.819214 -6.217377,-1.438965z" fill="#ff0000"/>
    <path id="svg_93" d="m378.271179,435.629547c-2.258911,-2.16803 -0.375122,-3.326996 2.144928,-1.319611c1.216431,0.968933 1.5271,1.883881 0.766815,2.258118c-0.703064,0.34613 -2.013397,-0.076263 -2.911743,-0.938507z" fill="#ff0000"/>
    <path id="svg_94" d="m332.224579,429.375244c-1.124268,-0.895569 -2.044067,-2.027893 -2.044067,-2.516357c0,-0.945648 3.651642,-4.14447 4.73111,-4.14447c1.959625,0 5.675079,2.349609 5.675079,3.588898c0,1.59024 -3.442657,4.700073 -5.203125,4.700073c-0.61319,0 -2.034729,-0.732635 -3.158997,-1.628143z" fill="#ff0000"/>
    <path id="svg_95" d="m405.768524,423.369965c-1.116669,-1.071869 -1.037262,-1.706818 0.326324,-2.608185c2.423279,-1.601959 6.034332,-0.367188 6.034332,2.063446c0,2.317993 -4.14328,2.672821 -6.360657,0.544739z" fill="#ff0000"/>
    <path id="svg_96" d="m391.423523,412.511841c-1.516418,-2.256897 0.431641,-4.303192 4.096588,-4.303192c3.053375,0 4.364807,2.681366 2.286865,4.67572c-2.18042,2.092773 -4.831055,1.938049 -6.383453,-0.372528z" fill="#ff0000"/>
    <path id="svg_97" d="m344.937897,411.790375c-0.423615,-0.879364 -0.419434,-1.878296 0.009369,-2.219849c0.926422,-0.738037 4.744843,1.603394 4.744843,2.909485c0,1.563568 -3.944366,0.991425 -4.754211,-0.689636z" fill="#ff0000"/>
    <path id="svg_98" d="m413.921356,419.871338c-2.369843,-1.887634 -1.734955,-6.080597 1.294006,-8.5466c1.507538,-1.227356 2.173737,-0.917908 4.46225,2.072266c3.344604,4.369904 3.380127,5.74234 0.183899,7.104919c-3.266693,1.392548 -3.420807,1.376221 -5.940155,-0.630585z" fill="#ff0000"/>
    <path id="svg_99" d="m431.640808,402.067871c0,-1.482819 0.835419,-2.148254 2.69693,-2.148254c3.333405,0 2.955231,3.429413 -0.435516,3.949585c-1.560944,0.23941 -2.261414,-0.318542 -2.261414,-1.801331z" fill="#ff0000"/>
   </g>
   <g id="svg_100">
    <path id="svg_101" d="m199.665955,340.398285c-1.279358,-0.411194 -1.170135,-1.680298 0.223907,-2.601868c0.953033,-0.630035 1.364227,-0.598724 2.33963,0.178223c2.079376,1.656342 0.295715,3.342651 -2.563538,2.423645z" fill="#ff0000"/>
    <path id="svg_102" d="m172.010315,336.792297c-1.888214,-1.688538 -1.633667,-3.408234 0.747406,-5.049438c1.354706,-0.933777 1.691467,-0.946014 3.664551,-0.13327c1.599701,0.658936 2.169769,1.321899 2.161346,2.51355c-0.014069,1.994537 -0.573975,2.644897 -3.008209,3.494263c-1.653625,0.577026 -2.117188,0.469757 -3.565094,-0.825104z" fill="#ff0000"/>
    <path id="svg_103" d="m186.032013,336.909088c-1.295258,-1.243164 -0.215088,-1.907715 1.229919,-0.756683c0.69751,0.555603 0.875671,1.080231 0.439697,1.29483c-0.403137,0.198486 -1.15448,-0.043732 -1.669617,-0.538147z" fill="#ff0000"/>
    <path id="svg_104" d="m159.62854,333.322815c-0.644653,-0.513519 -1.172089,-1.162811 -1.172089,-1.442902c0,-0.542236 2.093872,-2.376465 2.71286,-2.376465c1.123657,0 3.25412,1.34729 3.25412,2.057892c0,0.911865 -1.97403,2.695068 -2.98349,2.695068c-0.351624,0 -1.166748,-0.420105 -1.811401,-0.933594z" fill="#ff0000"/>
    <path id="svg_105" d="m201.799225,329.879333c-0.64032,-0.614594 -0.594788,-0.978699 0.187103,-1.495544c1.389526,-0.918579 3.460144,-0.210541 3.460144,1.183197c0,1.329163 -2.375793,1.532623 -3.647247,0.312347z" fill="#ff0000"/>
    <path id="svg_106" d="m193.573669,323.653229c-0.869507,-1.294128 0.247528,-2.467499 2.34903,-2.467499c1.750824,0 2.502808,1.537506 1.31131,2.681091c-1.250275,1.200012 -2.770172,1.111298 -3.660339,-0.213593z" fill="#ff0000"/>
    <path id="svg_107" d="m166.918457,323.239532c-0.24292,-0.504242 -0.240509,-1.077057 0.005371,-1.272888c0.531219,-0.423187 2.720734,0.919403 2.720734,1.668304c0,0.896576 -2.261749,0.568512 -2.726105,-0.395416z" fill="#ff0000"/>
    <path id="svg_108" d="m202.089386,323.179749c-1.358887,-1.082397 -0.994843,-3.486664 0.742004,-4.900696c0.86441,-0.703766 1.246429,-0.526337 2.558685,1.188263c1.917816,2.505737 1.938171,3.292694 0.105438,4.074005c-1.873138,0.798492 -1.961517,0.789124 -3.406128,-0.361572z" fill="#ff0000"/>
    <path id="svg_109" d="m216.634583,317.664551c0,-0.85025 0.479034,-1.231812 1.546448,-1.231812c1.911407,0 1.69455,1.966461 -0.249725,2.264709c-0.89505,0.137299 -1.296722,-0.182648 -1.296722,-1.032898z" fill="#ff0000"/>
   </g>
   <g id="svg_110">
    <path id="svg_111" d="m300.89859,321.381348c-2.231171,-0.717072 -2.04068,-2.930328 0.390472,-4.537537c1.662048,-1.098755 2.37912,-1.044128 4.080231,0.310822c3.626343,2.888611 0.515686,5.829437 -4.470703,4.226715z" fill="#ff0000"/>
    <path id="svg_112" d="m252.668274,315.092682c-3.292999,-2.944763 -2.84906,-5.943817 1.303436,-8.806c2.362549,-1.628479 2.94986,-1.649841 6.390808,-0.232452c2.789825,1.14917 3.783997,2.305328 3.769318,4.383545c-0.024567,3.478394 -1.000977,4.612579 -5.246185,6.093842c-2.883881,1.006317 -3.692322,0.819244 -6.217377,-1.438934z" fill="#ff0000"/>
    <path id="svg_113" d="m277.121521,315.296356c-2.258881,-2.16803 -0.375092,-3.326965 2.144928,-1.319641c1.216431,0.968994 1.52713,1.883911 0.766846,2.258148c-0.703094,0.346161 -2.013397,-0.076263 -2.911774,-0.938507z" fill="#ff0000"/>
    <path id="svg_114" d="m231.074951,309.042053c-1.124268,-0.895569 -2.044083,-2.027893 -2.044083,-2.516388c0,-0.945618 3.651642,-4.14444 4.73111,-4.14444c1.959625,0 5.675079,2.349609 5.675079,3.588867c0,1.59024 -3.442657,4.700104 -5.20311,4.700104c-0.613205,0 -2.034744,-0.732666 -3.158997,-1.628143z" fill="#ff0000"/>
    <path id="svg_115" d="m304.618896,303.036743c-1.116699,-1.071808 -1.037292,-1.706818 0.326294,-2.608154c2.423309,-1.601959 6.034363,-0.367188 6.034363,2.063446c0,2.317993 -4.143311,2.672852 -6.360657,0.544708z" fill="#ff0000"/>
    <path id="svg_116" d="m290.273895,292.17868c-1.516418,-2.256897 0.431641,-4.303223 4.096588,-4.303223c3.053345,0 4.364777,2.681335 2.286865,4.67569c-2.18042,2.092804 -4.831055,1.93808 -6.383453,-0.372467z" fill="#ff0000"/>
    <path id="svg_117" d="m243.788269,291.457214c-0.423645,-0.879364 -0.419434,-1.878357 0.009369,-2.219849c0.926392,-0.738037 4.744843,1.603394 4.744843,2.909424c0,1.563629 -3.944397,0.991455 -4.754211,-0.689575z" fill="#ff0000"/>
    <path id="svg_118" d="m305.124939,291.352936c-2.369843,-1.887634 -1.734985,-6.080566 1.294006,-8.5466c1.507507,-1.227325 2.173737,-0.917908 4.46225,2.072296c3.344574,4.369904 3.380127,5.74231 0.183899,7.104889c-3.266693,1.392517 -3.420837,1.37619 -5.940155,-0.630585z" fill="#ff0000"/>
    <path id="svg_119" d="m330.49118,281.73468c0,-1.482819 0.835419,-2.148224 2.69693,-2.148224c3.333405,0 2.955231,3.429413 -0.435516,3.949554c-1.560944,0.239441 -2.261414,-0.318542 -2.261414,-1.801331z" fill="#ff0000"/>
   </g>
   <g id="svg_120">
    <path id="svg_121" d="m335.77774,356.260559c-2.23111,-0.717102 -2.040649,-2.930359 0.390472,-4.537537c1.662079,-1.098755 2.379181,-1.044189 4.080231,0.310791c3.626373,2.88858 0.515717,5.829437 -4.470703,4.226746z" fill="#ff0000"/>
    <path id="svg_122" d="m287.547455,349.971863c-3.292969,-2.944733 -2.84906,-5.943848 1.303436,-8.80603c2.362549,-1.628448 2.949829,-1.64978 6.390839,-0.232391c2.789795,1.149139 3.783997,2.305328 3.769287,4.383514c-0.024536,3.478394 -1.000977,4.61261 -5.246185,6.093872c-2.883881,1.006287 -3.692291,0.819214 -6.217377,-1.438965z" fill="#ff0000"/>
    <path id="svg_123" d="m312.000702,350.175537c-2.25885,-2.16803 -0.375092,-3.326965 2.144928,-1.319611c1.216431,0.968933 1.527161,1.883881 0.766815,2.258118c-0.703033,0.34613 -2.013336,-0.076263 -2.911743,-0.938507z" fill="#ff0000"/>
    <path id="svg_124" d="m265.954163,343.921234c-1.124268,-0.895569 -2.044128,-2.027893 -2.044128,-2.516357c0,-0.945648 3.651642,-4.14444 4.73114,-4.14444c1.959625,0 5.675049,2.349609 5.675049,3.588867c0,1.59024 -3.442627,4.700073 -5.203064,4.700073c-0.613251,0 -2.03479,-0.732635 -3.158997,-1.628143z" fill="#ff0000"/>
    <path id="svg_125" d="m339.498108,337.915955c-1.116699,-1.071838 -1.037292,-1.706818 0.326263,-2.608185c2.423309,-1.601959 6.034363,-0.367188 6.034363,2.063446c0,2.318024 -4.14328,2.672821 -6.360626,0.544739z" fill="#ff0000"/>
    <path id="svg_126" d="m325.153046,327.057892c-1.516357,-2.256958 0.431702,-4.303253 4.096649,-4.303253c3.053345,0 4.364777,2.681366 2.286835,4.67572c-2.18042,2.092773 -4.831055,1.93808 -6.383484,-0.372467z" fill="#ff0000"/>
    <path id="svg_127" d="m278.66745,326.336395c-0.423645,-0.879395 -0.419434,-1.878326 0.009338,-2.219879c0.926453,-0.738007 4.744873,1.603394 4.744873,2.909485c0,1.563568 -3.944397,0.991425 -4.754211,-0.689606z" fill="#ff0000"/>
    <path id="svg_128" d="m340.004089,326.232117c-2.369812,-1.887634 -1.734955,-6.080597 1.294067,-8.5466c1.507477,-1.227356 2.173706,-0.917908 4.46225,2.072296c3.344574,4.369904 3.380066,5.74231 0.183868,7.104889c-3.266663,1.392548 -3.420807,1.376221 -5.940186,-0.630585z" fill="#ff0000"/>
    <path id="svg_129" d="m365.370331,316.613861c0,-1.482819 0.835419,-2.148254 2.69696,-2.148254c3.333435,0 2.955231,3.429474 -0.435516,3.949585c-1.560913,0.239441 -2.261444,-0.318542 -2.261444,-1.801331z" fill="#ff0000"/>
   </g>
   <g id="svg_130" transform="matrix(1.76962 -0.58911 0.58911 1.76962 -349.561 -257.645)">
    <path id="svg_131" d="m210.486771,309.245667c-1.279358,-0.411194 -1.170135,-1.680298 0.223907,-2.601868c0.953033,-0.630035 1.364227,-0.598724 2.33963,0.178223c2.079376,1.656342 0.295715,3.342651 -2.563538,2.423645z" fill="#ff0000"/>
    <path id="svg_132" d="m182.831131,305.639679c-1.888214,-1.688538 -1.633667,-3.408234 0.747406,-5.049438c1.354706,-0.933777 1.691467,-0.946014 3.664551,-0.13327c1.599701,0.658936 2.169769,1.321899 2.161346,2.51355c-0.014069,1.994537 -0.573975,2.644897 -3.008209,3.494263c-1.653625,0.577026 -2.117188,0.469757 -3.565094,-0.825104z" fill="#ff0000"/>
    <path id="svg_133" d="m196.852829,305.75647c-1.295258,-1.243164 -0.215088,-1.907715 1.229919,-0.756683c0.69751,0.555603 0.875671,1.080231 0.439697,1.29483c-0.403137,0.198486 -1.15448,-0.043732 -1.669617,-0.538147z" fill="#ff0000"/>
    <path id="svg_134" d="m170.449356,302.170197c-0.644653,-0.513519 -1.172089,-1.162811 -1.172089,-1.442902c0,-0.542236 2.093872,-2.376465 2.71286,-2.376465c1.123657,0 3.25412,1.34729 3.25412,2.057892c0,0.911865 -1.97403,2.695068 -2.98349,2.695068c-0.351624,0 -1.166748,-0.420105 -1.811401,-0.933594z" fill="#ff0000"/>
    <path id="svg_135" d="m212.620041,298.726715c-0.64032,-0.614594 -0.594788,-0.978699 0.187103,-1.495544c1.389526,-0.918579 3.460144,-0.210541 3.460144,1.183197c0,1.329163 -2.375793,1.532623 -3.647247,0.312347z" fill="#ff0000"/>
    <path id="svg_136" d="m204.394485,292.50061c-0.869507,-1.294128 0.247528,-2.467499 2.34903,-2.467499c1.750824,0 2.502808,1.537506 1.31131,2.681091c-1.250275,1.200012 -2.770172,1.111298 -3.660339,-0.213593z" fill="#ff0000"/>
    <path id="svg_137" d="m177.739273,292.086914c-0.24292,-0.504242 -0.240509,-1.077057 0.005371,-1.272888c0.531219,-0.423187 2.720734,0.919403 2.720734,1.668304c0,0.896576 -2.261749,0.568512 -2.726105,-0.395416z" fill="#ff0000"/>
    <path id="svg_138" d="m212.910202,292.02713c-1.358887,-1.082397 -0.994843,-3.486664 0.742004,-4.900696c0.86441,-0.703766 1.246429,-0.526337 2.558685,1.188263c1.917816,2.505737 1.938171,3.292694 0.105438,4.074005c-1.873138,0.798492 -1.961517,0.789124 -3.406128,-0.361572z" fill="#ff0000"/>
    <path id="svg_139" d="m227.455399,286.511932c0,-0.85025 0.479034,-1.231812 1.546448,-1.231812c1.911407,0 1.69455,1.966461 -0.249725,2.264709c-0.89505,0.137299 -1.296722,-0.182648 -1.296722,-1.032898z" fill="#ff0000"/>
   </g>
   <g id="svg_140" transform="matrix(1.86317 0.0848846 -0.0848846 1.86317 -158.122 -422.24)">
    <path id="svg_141" d="m183.186752,285.594208c-1.279358,-0.411194 -1.170135,-1.680298 0.223907,-2.601868c0.953033,-0.630035 1.364227,-0.598724 2.33963,0.178223c2.079376,1.656342 0.295715,3.342651 -2.563538,2.423645z" fill="#ff0000"/>
    <path id="svg_142" d="m155.531113,281.98822c-1.888214,-1.688538 -1.633667,-3.408234 0.747406,-5.049438c1.354706,-0.933777 1.691467,-0.946014 3.664551,-0.13327c1.599701,0.658936 2.169769,1.321899 2.161346,2.51355c-0.014069,1.994537 -0.573975,2.644897 -3.008209,3.494263c-1.653625,0.577026 -2.117188,0.469757 -3.565094,-0.825104z" fill="#ff0000"/>
    <path id="svg_143" d="m169.552811,282.105011c-1.295258,-1.243164 -0.215088,-1.907715 1.229919,-0.756683c0.69751,0.555603 0.875671,1.080231 0.439697,1.29483c-0.403137,0.198486 -1.15448,-0.043732 -1.669617,-0.538147z" fill="#ff0000"/>
    <path id="svg_144" d="m143.149338,278.518738c-0.644653,-0.513519 -1.172089,-1.162811 -1.172089,-1.442902c0,-0.542236 2.093872,-2.376465 2.71286,-2.376465c1.123657,0 3.25412,1.34729 3.25412,2.057892c0,0.911865 -1.97403,2.695068 -2.98349,2.695068c-0.351624,0 -1.166748,-0.420105 -1.811401,-0.933594z" fill="#ff0000"/>
    <path id="svg_145" d="m185.320023,275.075256c-0.64032,-0.614594 -0.594788,-0.978699 0.187103,-1.495544c1.389526,-0.918579 3.460144,-0.210541 3.460144,1.183197c0,1.329163 -2.375793,1.532623 -3.647247,0.312347z" fill="#ff0000"/>
    <path id="svg_146" d="m177.094467,268.849152c-0.869507,-1.294128 0.247528,-2.467499 2.34903,-2.467499c1.750824,0 2.502808,1.537506 1.31131,2.681091c-1.250275,1.200012 -2.770172,1.111298 -3.660339,-0.213593z" fill="#ff0000"/>
    <path id="svg_147" d="m150.439255,268.435455c-0.24292,-0.504242 -0.240509,-1.077057 0.005371,-1.272888c0.531219,-0.423187 2.720734,0.919403 2.720734,1.668304c0,0.896576 -2.261749,0.568512 -2.726105,-0.395416z" fill="#ff0000"/>
    <path id="svg_148" d="m185.610184,268.375671c-1.358887,-1.082397 -0.994843,-3.486664 0.742004,-4.900696c0.86441,-0.703766 1.246429,-0.526337 2.558685,1.188263c1.917816,2.505737 1.938171,3.292694 0.105438,4.074005c-1.873138,0.798492 -1.961517,0.789124 -3.406128,-0.361572z" fill="#ff0000"/>
    <path id="svg_149" d="m200.15538,262.860474c0,-0.85025 0.479034,-1.231812 1.546448,-1.231812c1.911407,0 1.69455,1.966461 -0.249725,2.264709c-0.89505,0.137299 -1.296722,-0.182648 -1.296722,-1.032898z" fill="#ff0000"/>
   </g>
   <g id="svg_150">
    <path id="svg_151" d="m204.732666,201.005157c-2.386169,-0.766891 -2.182434,-3.133942 0.417572,-4.852753c1.777527,-1.175079 2.544449,-1.116669 4.363663,0.332413c3.878265,3.089249 0.551544,6.23439 -4.781235,4.52034z" fill="#ff0000"/>
    <path id="svg_152" d="m153.152069,194.279602c-3.521713,-3.149261 -3.046936,-6.356674 1.393982,-9.417694c2.526672,-1.741577 3.15477,-1.76442 6.834778,-0.24855c2.983597,1.228958 4.046844,2.465454 4.031128,4.687988c-0.026245,3.720062 -1.070526,4.933029 -5.610626,6.517166c-3.084167,1.076233 -3.948776,0.876175 -6.649261,-1.53891z" fill="#ff0000"/>
    <path id="svg_153" d="m179.30397,194.497467c-2.415817,-2.318634 -0.401184,-3.55809 2.293915,-1.411316c1.300934,1.036255 1.633224,2.01474 0.820099,2.415009c-0.751923,0.370193 -2.153214,-0.081573 -3.114014,-1.003693z" fill="#ff0000"/>
    <path id="svg_154" d="m130.058823,187.808701c-1.202362,-0.957779 -2.186096,-2.168777 -2.186096,-2.691177c0,-1.011322 3.905304,-4.432343 5.059769,-4.432343c2.095749,0 6.06929,2.512817 6.06929,3.838165c0,1.700729 -3.681793,5.026596 -5.564529,5.026596c-0.655823,0 -2.176117,-0.783554 -3.378433,-1.741241z" fill="#ff0000"/>
    <path id="svg_155" d="m208.711426,181.386246c-1.194275,-1.146271 -1.10936,-1.825378 0.348953,-2.789337c2.591614,-1.713242 6.453522,-0.3927 6.453522,2.206772c0,2.479034 -4.431076,2.858505 -6.802475,0.582565z" fill="#ff0000"/>
    <path id="svg_156" d="m193.369919,169.773926c-1.621704,-2.413681 0.46167,-4.602142 4.38118,-4.602142c3.265457,0 4.667984,2.867615 2.445709,5.000519c-2.331879,2.238144 -5.166641,2.072678 -6.826889,-0.398376z" fill="#ff0000"/>
    <path id="svg_157" d="m143.655243,169.002335c-0.453079,-0.94046 -0.448578,-2.008804 0.010025,-2.374054c0.990768,-0.789291 5.074432,1.714767 5.074432,3.111542c0,1.672226 -4.218399,1.060364 -5.084457,-0.737488z" fill="#ff0000"/>
    <path id="svg_158" d="m209.252594,168.890839c-2.534485,-2.018768 -1.855484,-6.502975 1.383926,-9.140274c1.612213,-1.312622 2.324677,-0.981689 4.772171,2.216202c3.576965,4.673462 3.614914,6.14122 0.196701,7.59845c-3.493622,1.489258 -3.658463,1.471802 -6.352798,-0.674377z" fill="#ff0000"/>
    <path id="svg_159" d="m236.380859,158.604431c0,-1.585785 0.893448,-2.297455 2.884262,-2.297455c3.564957,0 3.160507,3.667648 -0.465729,4.223923c-1.669342,0.256058 -2.418533,-0.340668 -2.418533,-1.926468z" fill="#ff0000"/>
   </g>
   <path id="svg_160" d="m510.218506,382.121033c0,-2.669128 1.197845,-3.866974 3.866943,-3.866974c4.779663,0 4.237366,6.173187 -0.62439,7.109467c-2.238129,0.43103 -3.242554,-0.573364 -3.242554,-3.242493z" fill="#ff0000"/>
   <path id="svg_161" d="m577.362183,283.27063c0,-2.669128 1.197876,-3.866974 3.867004,-3.866974c4.779602,0 4.237366,6.173248 -0.624512,7.109528c-2.238098,0.431 -3.242493,-0.573395 -3.242493,-3.242554z" fill="#ff0000"/>
   <path id="svg_162" d="m523.27417,314.977386c0,-2.669159 1.197876,-3.866974 3.867065,-3.866974c4.779602,0 4.237305,6.173157 -0.624451,7.109497c-2.238159,0.431 -3.242615,-0.573395 -3.242615,-3.242523z" fill="#ff0000"/>
   <path id="svg_163" d="m573.632019,203.071289c0,-2.669128 2.752808,-3.866989 8.886963,-3.866989c10.984497,0 9.73822,6.173233 -1.435059,7.109497c-5.143616,0.431 -7.451904,-0.573395 -7.451904,-3.242508z" fill="#ff0000"/>
   <path id="svg_164" d="m560.576294,352.279419c0,-2.669128 1.197876,-3.867004 3.866943,-3.867004c4.779663,0 4.237427,6.173187 -0.624451,7.109497c-2.238098,0.431 -3.242493,-0.573364 -3.242493,-3.242493z" fill="#ff0000"/>
   <path id="svg_165" d="m551.250732,178.824966c0,-2.669128 2.441895,-3.866974 7.882996,-3.866974c9.74353,0 8.638123,6.173203 -1.272888,7.109512c-4.5625,0.430984 -6.610107,-0.573395 -6.610107,-3.242538z" fill="#ff0000"/>
   <path id="svg_166" d="m206.207001,46.40276c0,-2.669121 1.819855,-3.86697 5.875015,-3.86697c7.261505,0 6.437668,6.17321 -0.948746,7.10952c-3.400223,0.430969 -4.92627,-0.57341 -4.92627,-3.24255z" fill="#ff0000"/>
   <path id="svg_167" d="m90.570709,342.953888c0,-2.669128 1.197838,-3.866974 3.866989,-3.866974c4.779602,0 4.23735,6.173218 -0.624458,7.109528c-2.238068,0.430939 -3.242531,-0.573425 -3.242531,-3.242554z" fill="#ff0000"/>
   <path id="svg_168" d="m81.190811,284.000854c-3.238831,-3.902557 -0.537834,-5.98877 3.075462,-2.375397c1.744209,1.744202 2.18969,3.391113 1.099487,4.06488c-1.008018,0.623016 -2.886787,-0.137299 -4.17495,-1.689484z" fill="#ff0000"/>
  </g>
 </g>
</svg>